<?xml version="1.0" encoding="UTF-8"?>
<svg xmlns="http://www.w3.org/2000/svg" xmlns:xlink="http://www.w3.org/1999/xlink" width="111.16pt" height="107.84pt" viewBox="0 0 111.16 107.84" version="1.1">
<defs>
<clipPath id="clip1">
  <path d="M 59 47 L 111.160156 47 L 111.160156 101 L 59 101 Z M 59 47 "/>
</clipPath>
<clipPath id="clip2">
  <path d="M 27 56 L 85 56 L 85 107.839844 L 27 107.839844 Z M 27 56 "/>
</clipPath>
</defs>
<g id="surface1">
<path style=" stroke:none;fill-rule:nonzero;fill:rgb(1.599121%,36.499023%,37.599182%);fill-opacity:1;" d="M 67.871094 12.292969 C 67.871094 19.078125 62.367188 24.582031 55.578125 24.582031 C 48.789063 24.582031 43.289063 19.078125 43.289063 12.292969 C 43.289063 5.503906 48.789063 0 55.578125 0 C 62.367188 0 67.871094 5.503906 67.871094 12.292969 "/>
<path style=" stroke:none;fill-rule:nonzero;fill:rgb(1.599121%,36.499023%,37.599182%);fill-opacity:1;" d="M 16.734375 32.253906 C 16.59375 31.695313 16.132813 31.359375 15.527344 31.15625 C 14.925781 30.953125 14.179688 30.867188 13.359375 30.867188 C 11.515625 30.867188 10.699219 31.203125 10.699219 31.785156 C 10.699219 34.203125 25.402344 32.703125 25.402344 38.570313 C 25.402344 42.308594 20.464844 44.125 13.433594 44.125 C 6.683594 44.125 2.277344 41.636719 2.101563 38.726563 L 10.128906 38.726563 C 10.304688 39.308594 10.804688 39.734375 11.515625 40.003906 C 12.191406 40.273438 13.078125 40.40625 13.894531 40.40625 C 15.988281 40.40625 17.375 39.980469 17.375 39.21875 C 17.375 36.777344 2.667969 38.457031 2.667969 32.300781 C 2.667969 28.871094 7.359375 27.148438 13.753906 27.148438 C 20.855469 27.148438 24.089844 29.429688 24.691406 32.253906 L 16.734375 32.253906 "/>
<path style=" stroke:none;fill-rule:nonzero;fill:rgb(1.599121%,36.499023%,37.599182%);fill-opacity:1;" d="M 29.273438 43.699219 L 29.273438 27.574219 L 50.125 27.574219 L 50.125 31.335938 L 37.65625 31.335938 L 37.65625 33.644531 L 48.207031 33.644531 L 48.207031 37.40625 L 37.65625 37.40625 L 37.65625 39.9375 L 50.625 39.9375 L 50.625 43.699219 L 29.273438 43.699219 "/>
<path style=" stroke:none;fill-rule:nonzero;fill:rgb(1.599121%,36.499023%,37.599182%);fill-opacity:1;" d="M 71.652344 36.375 L 71.332031 32.703125 L 71.332031 27.574219 L 79.359375 27.574219 L 79.359375 43.699219 L 71.511719 43.699219 L 62.382813 34.917969 L 62.699219 38.59375 L 62.699219 43.699219 L 54.671875 43.699219 L 54.671875 27.574219 L 62.523438 27.574219 L 71.652344 36.375 "/>
<path style=" stroke:none;fill-rule:nonzero;fill:rgb(1.599121%,36.499023%,37.599182%);fill-opacity:1;" d="M 95.558594 32.433594 L 92.964844 38.210938 L 98.257813 38.210938 Z M 82.203125 43.699219 L 91.367188 27.574219 L 99.890625 27.574219 L 109.058594 43.699219 L 100.710938 43.699219 L 99.714844 41.570313 L 91.367188 41.570313 L 90.40625 43.699219 L 82.203125 43.699219 "/>
<g clip-path="url(#clip1)" clip-rule="nonzero">
<path style=" stroke:none;fill-rule:nonzero;fill:rgb(1.599121%,36.499023%,37.599182%);fill-opacity:1;" d="M 110.921875 47.210938 L 59.664063 47.210938 L 89.5 100.195313 L 96.078125 94.464844 L 72.210938 54.609375 L 111.15625 54.511719 L 110.921875 47.210938 "/>
</g>
<path style=" stroke:none;fill-rule:nonzero;fill:rgb(1.599121%,36.499023%,37.599182%);fill-opacity:1;" d="M 0.238281 47.210938 L 51.492188 47.210938 L 21.65625 100.195313 L 15.082031 94.464844 L 38.945313 54.609375 L 0 54.511719 L 0.238281 47.210938 "/>
<g clip-path="url(#clip2)" clip-rule="nonzero">
<path style=" stroke:none;fill-rule:nonzero;fill:rgb(1.599121%,36.499023%,37.599182%);fill-opacity:1;" d="M 27.367188 104.445313 L 55.34375 56.179688 L 84.109375 103.972656 L 76.515625 107.402344 L 55.976563 70.691406 L 34.121094 107.839844 L 27.367188 104.445313 "/>
</g>
</g>
</svg>
